<svg xmlns="http://www.w3.org/2000/svg" viewBox="0 0 1024 1024">
  <defs>
    <radialGradient id="bg" cx="50%" cy="42%" r="74%">
      <stop offset="0" stop-color="#111d25"/>
      <stop offset="0.6" stop-color="#090d15"/>
      <stop offset="1" stop-color="#05070c"/>
    </radialGradient>
    <linearGradient id="rim" x1="0" y1="0" x2="1" y2="0">
      <stop offset="0" stop-color="#20f1df"/>
      <stop offset="0.48" stop-color="#7dd9ff"/>
      <stop offset="0.58" stop-color="#d486ff"/>
      <stop offset="1" stop-color="#ff3a79"/>
    </linearGradient>
    <linearGradient id="cyan" x1="0" y1="0" x2="1" y2="0"><stop offset="0" stop-color="#08b8b0"/><stop offset=".55" stop-color="#27e4d3"/><stop offset="1" stop-color="#6ef6ed"/></linearGradient>
    <linearGradient id="pink" x1="0" y1="0" x2="1" y2="0"><stop offset="0" stop-color="#ff927f"/><stop offset=".5" stop-color="#ff5570"/><stop offset="1" stop-color="#ff2e8f"/></linearGradient>
    <linearGradient id="bar1" x1="0" y1="0" x2="0" y2="1"><stop offset="0" stop-color="#5affea"/><stop offset="1" stop-color="#00c9b8"/></linearGradient>
    <linearGradient id="bar2" x1="0" y1="0" x2="0" y2="1"><stop offset="0" stop-color="#effffb"/><stop offset=".45" stop-color="#9ff5e6"/><stop offset="1" stop-color="#d780c9"/></linearGradient>
    <linearGradient id="bar3" x1="0" y1="0" x2="0" y2="1"><stop offset="0" stop-color="#ffb0a7"/><stop offset="1" stop-color="#ff3d7e"/></linearGradient>
    <filter id="outerGlow" x="-30%" y="-30%" width="160%" height="160%"><feGaussianBlur stdDeviation="18" result="b"/><feMerge><feMergeNode in="b"/><feMergeNode in="SourceGraphic"/></feMerge></filter>
    <filter id="glowCyan" x="-40%" y="-40%" width="180%" height="180%"><feGaussianBlur stdDeviation="18" result="blur"/><feFlood flood-color="#16e8dc" flood-opacity=".58"/><feComposite in2="blur" operator="in"/><feMerge><feMergeNode/><feMergeNode in="SourceGraphic"/></feMerge></filter>
    <filter id="glowPink" x="-40%" y="-40%" width="180%" height="180%"><feGaussianBlur stdDeviation="18" result="blur"/><feFlood flood-color="#ff326f" flood-opacity=".58"/><feComposite in2="blur" operator="in"/><feMerge><feMergeNode/><feMergeNode in="SourceGraphic"/></feMerge></filter>
  </defs>
  <rect x="66" y="66" width="892" height="892" rx="192" fill="url(#bg)" stroke="url(#rim)" stroke-width="16" filter="url(#outerGlow)"/>
  <g transform="translate(67 73) scale(.87)">
    <g filter="url(#glowCyan)"><path d="M154 404 C272 422 344 347 425 265 C510 179 622 153 731 216" fill="none" stroke="url(#cyan)" stroke-width="116" stroke-linecap="round"/><path d="M704 118 L900 254 L704 390 Z" fill="url(#cyan)"/></g>
    <rect x="344" y="444" width="54" height="126" rx="27" fill="url(#bar1)"/><rect x="427" y="386" width="62" height="244" rx="31" fill="url(#bar1)"/><rect x="516" y="330" width="68" height="356" rx="34" fill="url(#bar2)"/><rect x="611" y="395" width="62" height="230" rx="31" fill="url(#bar3)"/><rect x="700" y="451" width="54" height="120" rx="27" fill="url(#bar3)"/>
    <g filter="url(#glowPink)"><path d="M858 622 C735 708 620 751 489 713 C392 684 311 612 226 628" fill="none" stroke="url(#pink)" stroke-width="118" stroke-linecap="round"/><path d="M239 526 L58 645 L242 772 Z" fill="url(#pink)"/></g>
  </g>
</svg>
